<svg width="30" height="30" viewBox="0 0 30 30" fill="none" xmlns="http://www.w3.org/2000/svg">
<path d="M24.5918 15.0674L26.5166 14.5225L28.9688 23.1816L25.1201 24.2715L22.668 15.6123L23.6299 15.3398L23.085 13.415L24.0469 13.1426L24.5918 15.0674Z" fill="white" style="fill:white;fill-opacity:1;"/>
<path d="M10.4138 4.04297C10.7216 3.96894 11.0234 3.99077 11.3171 4.1084L15.9314 5.95703C15.711 6.40167 15.571 6.89369 15.53 7.41309L10.7585 5.50098L7.73804 10.2158L12.7292 12.2158C13.2302 11.242 14.1798 10.517 15.3464 10.3496C17.2595 10.0755 19.0327 11.4044 19.3074 13.3174C19.3813 13.8332 19.3371 14.3388 19.198 14.8076L21.6853 15.8047L21.4285 17.8564L18.0798 26.2109C17.9745 26.4735 17.7974 26.6581 17.5486 26.7646C17.2995 26.8711 17.0429 26.8719 16.78 26.7666L15.8513 26.3945C15.589 26.2892 15.4041 26.1119 15.2976 25.8633C15.1912 25.6143 15.1904 25.3575 15.2957 25.0947L16.0398 23.2383L4.90112 18.7744L4.15698 20.6309C4.05159 20.8937 3.8738 21.078 3.62476 21.1846C3.37565 21.2911 3.11909 21.2919 2.8562 21.1865L1.92847 20.8145C1.66589 20.7091 1.48035 20.532 1.37378 20.2832C1.26742 20.0342 1.2666 19.7774 1.37183 19.5146L3.97632 13.0166H3.97729L4.72046 11.1611V11.1602L5.95093 9.49902L5.46362 9.30371C4.95147 9.09811 4.70188 8.51628 4.90698 8.00391C5.11244 7.49157 5.69531 7.24221 6.20776 7.44727L7.07397 7.79492C7.10961 7.8092 7.14447 7.82598 7.17749 7.84375L9.64526 4.51562C9.84956 4.27455 10.1061 4.11708 10.4138 4.04297ZM16.0427 17.8535L18.8269 18.9688L19.571 17.1123L16.7869 15.9971L16.0427 17.8535ZM5.83179 13.7607L8.61694 14.877L9.36108 13.0205L6.57593 11.9043L5.83179 13.7607ZM15.488 11.3389L15.2371 11.3877C14.5511 11.5582 13.9915 12.0055 13.6628 12.5898L13.6648 12.5908L18.2634 14.4326C18.3223 14.2024 18.3508 13.9608 18.3406 13.7139L18.3171 13.459C18.1208 12.0927 16.8545 11.143 15.488 11.3389Z" fill="white" style="fill:white;fill-opacity:1;"/>
<path d="M21.4277 17.8564L18.8242 24.3545L2.11621 17.6582L3.97559 13.0166H3.97754L4.7207 11.1611L4.71973 11.1602L21.4277 17.8564ZM16.043 17.8535L18.8271 18.9688L19.5713 17.1123L16.7871 15.9971L16.043 17.8535ZM5.83203 13.7607L8.61719 14.877L9.36133 13.0205L6.57617 11.9043L5.83203 13.7607Z" fill="white" style="fill:white;fill-opacity:1;"/>
<path d="M23.4088 11.9717C24.0919 11.8739 24.7247 12.3482 24.8229 13.0312C24.9209 13.7146 24.4467 14.3483 23.7633 14.4463C23.08 14.5443 22.4463 14.07 22.3483 13.3867C22.2503 12.7034 22.7254 12.0697 23.4088 11.9717Z" fill="white" style="fill:white;fill-opacity:1;"/>
<path d="M14.7096 9.43066C15.2561 9.35229 15.7628 9.73185 15.8414 10.2783C15.9198 10.8249 15.5403 11.3316 14.9938 11.4102C14.4471 11.4886 13.9403 11.1092 13.8619 10.5625C13.7836 10.0159 14.163 9.50908 14.7096 9.43066Z" fill="white" style="fill:white;fill-opacity:1;"/>
<path fill-rule="evenodd" clip-rule="evenodd" d="M22.5172 7.73145C22.5172 6.07464 21.174 4.73152 19.5172 4.73145C17.8603 4.73145 16.5172 6.07459 16.5172 7.73145C16.5173 8.87212 17.154 9.8638 18.0914 10.3711C17.8342 10.4252 17.589 10.5245 17.3674 10.6634C18.3787 11.1537 19.1362 12.1214 19.3078 13.3176C19.3817 13.8335 19.3376 14.339 19.1984 14.8079L21.6858 15.8049L20.732 12.1182C20.6168 11.5361 20.2776 11.0395 19.8082 10.7168C21.3284 10.5704 22.5171 9.28995 22.5172 7.73145ZM18.2639 14.4329C18.2822 14.3612 18.2976 14.2884 18.3098 14.2147C18.3039 14.2434 18.2977 14.272 18.2914 14.3013C18.2823 14.3432 18.2729 14.3864 18.2639 14.4329ZM18.318 13.459C18.1784 12.4859 17.4958 11.7244 16.621 11.4373C16.6206 11.438 16.6201 11.4387 16.6197 11.4395C17.4947 11.7264 18.1783 12.4859 18.318 13.459Z" fill="white" style="fill:white;fill-opacity:1;"/>
</svg>
