<svg width="30" height="30" viewBox="0 0 30 30" fill="none" xmlns="http://www.w3.org/2000/svg">
<path d="M24.5918 15.0674L26.5166 14.5225L28.9688 23.1816L25.1201 24.2715L22.668 15.6123L23.6299 15.3398L23.085 13.415L24.0469 13.1426L24.5918 15.0674Z" fill="url(#paint0_linear_57_2395)"/>
<path fill-rule="evenodd" clip-rule="evenodd" d="M10.4142 4.04344C10.7222 3.96936 11.0236 3.99107 11.3176 4.10887L15.9318 5.9575C15.7113 6.40225 15.5714 6.89402 15.5304 7.41355L10.759 5.50144L7.73845 10.2163L12.7297 12.2163C13.2307 11.2423 14.18 10.5174 15.3468 10.3501C17.2601 10.0759 19.0333 11.4047 19.3078 13.3179C19.3817 13.8337 19.3376 14.3392 19.1984 14.8081L21.6857 15.8052L21.4289 17.8569L18.0802 26.2114C17.9749 26.474 17.7978 26.6585 17.549 26.7651C17.2998 26.8717 17.0434 26.8724 16.7804 26.7671L15.8517 26.395C15.5892 26.2897 15.4046 26.1125 15.298 25.8637C15.1914 25.6146 15.1907 25.3581 15.2961 25.0952L16.0402 23.2387L4.90154 18.7749L4.15739 20.6313C4.052 20.8941 3.87421 21.0785 3.62517 21.185C3.37599 21.2916 3.11957 21.2924 2.85661 21.187L1.92888 20.8149C1.66603 20.7096 1.48083 20.5327 1.37419 20.2837C1.26762 20.0345 1.26695 19.778 1.37224 19.5151L4.72087 11.1606L5.95134 9.49949L5.46404 9.30418C4.95154 9.09876 4.70222 8.51692 4.90739 8.00437C5.11285 7.49173 5.69553 7.24228 6.20818 7.44773L7.07439 7.79539C7.1102 7.80974 7.14473 7.82634 7.1779 7.84422L9.64568 4.51609C9.85005 4.27492 10.1064 4.11752 10.4142 4.04344ZM15.4884 11.3393L15.2375 11.3882C14.5514 11.5586 13.992 12.0059 13.6633 12.5903L13.6652 12.5913L18.2638 14.4331C18.3228 14.2028 18.3512 13.9614 18.341 13.7143L18.3176 13.4595C18.1215 12.0929 16.8551 11.1434 15.4884 11.3393Z" fill="url(#paint1_linear_57_2395)"/>
<path d="M4.72006 11.1606L21.4282 17.8567L18.8242 24.3543L2.11603 17.6583L4.72006 11.1606Z" fill="url(#paint2_linear_57_2395)"/>
<path d="M19.5713 17.1123L18.8271 18.9688L16.043 17.8535L16.7871 15.9971L19.5713 17.1123Z" fill="white" style="fill:white;fill-opacity:1;"/>
<path d="M9.36133 13.0205L8.61719 14.877L5.83203 13.7607L6.57617 11.9043L9.36133 13.0205Z" fill="white" style="fill:white;fill-opacity:1;"/>
<path d="M4.7207 11.1611L3.97754 13.0166H3.97559L4.71973 11.1602L4.7207 11.1611Z" fill="white" style="fill:white;fill-opacity:1;"/>
<path d="M23.4088 11.9717C24.0919 11.8739 24.7247 12.3482 24.8229 13.0312C24.9209 13.7146 24.4467 14.3483 23.7633 14.4463C23.08 14.5443 22.4463 14.07 22.3483 13.3867C22.2503 12.7034 22.7254 12.0697 23.4088 11.9717Z" fill="url(#paint3_linear_57_2395)"/>
<path d="M14.7096 9.43066C15.2561 9.35229 15.7628 9.73185 15.8414 10.2783C15.9198 10.8249 15.5403 11.3316 14.9938 11.4102C14.4471 11.4886 13.9403 11.1092 13.8619 10.5625C13.7836 10.0159 14.163 9.50908 14.7096 9.43066Z" fill="url(#paint4_linear_57_2395)"/>
<path fill-rule="evenodd" clip-rule="evenodd" d="M22.5172 7.73145C22.5172 6.07464 21.174 4.73152 19.5172 4.73145C17.8603 4.73145 16.5172 6.07459 16.5172 7.73145C16.5173 8.87212 17.154 9.8638 18.0914 10.3711C17.8342 10.4252 17.589 10.5245 17.3674 10.6634C18.3787 11.1537 19.1362 12.1214 19.3078 13.3176C19.3817 13.8335 19.3376 14.339 19.1984 14.8079L21.6858 15.8049L20.732 12.1182C20.6168 11.5361 20.2776 11.0395 19.8082 10.7168C21.3284 10.5704 22.5171 9.28995 22.5172 7.73145ZM18.2639 14.4329C18.2822 14.3612 18.2976 14.2884 18.3098 14.2147C18.3039 14.2434 18.2977 14.272 18.2914 14.3013C18.2823 14.3432 18.2729 14.3864 18.2639 14.4329ZM18.318 13.459C18.1784 12.4859 17.4958 11.7244 16.621 11.4373C16.6206 11.438 16.6201 11.4387 16.6197 11.4395C17.4947 11.7264 18.1783 12.4859 18.318 13.459Z" fill="url(#paint5_linear_57_2395)"/>
<defs>
<linearGradient id="paint0_linear_57_2395" x1="25.8184" y1="13.1426" x2="25.8184" y2="24.2715" gradientUnits="userSpaceOnUse">
<stop stop-color="#8EADF0" style="stop-color:#8EADF0;stop-color:color(display-p3 0.5577 0.6795 0.9423);stop-opacity:1;"/>
<stop offset="1" stop-color="#2091E7" style="stop-color:#2091E7;stop-color:color(display-p3 0.1258 0.5673 0.9049);stop-opacity:1;"/>
</linearGradient>
<linearGradient id="paint1_linear_57_2395" x1="11.4897" y1="4.00049" x2="11.4897" y2="26.8456" gradientUnits="userSpaceOnUse">
<stop stop-color="#8EADF0" style="stop-color:#8EADF0;stop-color:color(display-p3 0.5577 0.6795 0.9423);stop-opacity:1;"/>
<stop offset="1" stop-color="#2091E7" style="stop-color:#2091E7;stop-color:color(display-p3 0.1258 0.5673 0.9049);stop-opacity:1;"/>
</linearGradient>
<linearGradient id="paint2_linear_57_2395" x1="11.7721" y1="11.1606" x2="11.7721" y2="24.3543" gradientUnits="userSpaceOnUse">
<stop stop-color="#8EADF0" style="stop-color:#8EADF0;stop-color:color(display-p3 0.5577 0.6795 0.9423);stop-opacity:1;"/>
<stop offset="1" stop-color="#2091E7" style="stop-color:#2091E7;stop-color:color(display-p3 0.1258 0.5673 0.9049);stop-opacity:1;"/>
</linearGradient>
<linearGradient id="paint3_linear_57_2395" x1="19.3437" y1="4.73145" x2="19.3437" y2="15.8049" gradientUnits="userSpaceOnUse">
<stop stop-color="#8EADF0" style="stop-color:#8EADF0;stop-color:color(display-p3 0.5577 0.6795 0.9423);stop-opacity:1;"/>
<stop offset="1" stop-color="#2091E7" style="stop-color:#2091E7;stop-color:color(display-p3 0.1258 0.5673 0.9049);stop-opacity:1;"/>
</linearGradient>
<linearGradient id="paint4_linear_57_2395" x1="19.3437" y1="4.73145" x2="19.3437" y2="15.8049" gradientUnits="userSpaceOnUse">
<stop stop-color="#8EADF0" style="stop-color:#8EADF0;stop-color:color(display-p3 0.5577 0.6795 0.9423);stop-opacity:1;"/>
<stop offset="1" stop-color="#2091E7" style="stop-color:#2091E7;stop-color:color(display-p3 0.1258 0.5673 0.9049);stop-opacity:1;"/>
</linearGradient>
<linearGradient id="paint5_linear_57_2395" x1="19.3437" y1="4.73145" x2="19.3437" y2="15.8049" gradientUnits="userSpaceOnUse">
<stop stop-color="#8EADF0" style="stop-color:#8EADF0;stop-color:color(display-p3 0.5577 0.6795 0.9423);stop-opacity:1;"/>
<stop offset="1" stop-color="#2091E7" style="stop-color:#2091E7;stop-color:color(display-p3 0.1258 0.5673 0.9049);stop-opacity:1;"/>
</linearGradient>
</defs>
</svg>
